<svg width="32" height="32" viewBox="0 0 32 32" fill="none" xmlns="http://www.w3.org/2000/svg">
<path d="M26.8804 5.60013H5.12039C3.62439 5.60013 2.41399 6.77013 2.41399 8.20013L2.40039 23.8001C2.40039 25.2301 3.62439 26.4001 5.12039 26.4001H26.8804C28.3764 26.4001 29.6004 25.2301 29.6004 23.8001V8.20013C29.6004 6.77013 28.3764 5.60013 26.8804 5.60013ZM26.3364 11.1251L16.7212 16.8711C16.286 17.1311 15.7148 17.1311 15.2796 16.8711L5.66439 11.1251C5.52802 11.052 5.4086 10.9531 5.31336 10.8345C5.21812 10.7159 5.14904 10.5801 5.11029 10.4353C5.07155 10.2905 5.06395 10.1396 5.08796 9.99193C5.11197 9.84421 5.16709 9.70269 5.24997 9.57592C5.33286 9.44915 5.44179 9.33978 5.57018 9.25442C5.69856 9.16906 5.84374 9.10949 5.9969 9.07932C6.15007 9.04914 6.30806 9.04899 6.46129 9.07886C6.61452 9.10874 6.75982 9.16802 6.88839 9.25313L16.0004 14.7001L25.1124 9.25313C25.241 9.16802 25.3863 9.10874 25.5395 9.07886C25.6927 9.04899 25.8507 9.04914 26.0039 9.07932C26.157 9.10949 26.3022 9.16906 26.4306 9.25442C26.559 9.33978 26.6679 9.44915 26.7508 9.57592C26.8337 9.70269 26.8888 9.84421 26.9128 9.99193C26.9368 10.1396 26.9292 10.2905 26.8905 10.4353C26.8517 10.5801 26.7827 10.7159 26.6874 10.8345C26.5922 10.9531 26.4728 11.052 26.3364 11.1251Z" fill="#F7FBFB"/>
</svg>
