<svg width="40" height="40" viewBox="0 0 40 40" fill="none" xmlns="http://www.w3.org/2000/svg">
<path d="M13.0007 3.3335H27.0007C32.334 3.3335 36.6673 7.66683 36.6673 13.0002V27.0002C36.6673 29.5639 35.6489 32.0227 33.836 33.8355C32.0232 35.6484 29.5644 36.6668 27.0007 36.6668H13.0007C7.66732 36.6668 3.33398 32.3335 3.33398 27.0002V13.0002C3.33398 10.4364 4.35243 7.97765 6.16529 6.1648C7.97814 4.35195 10.4369 3.3335 13.0007 3.3335ZM12.6673 6.66683C11.076 6.66683 9.5499 7.29897 8.42468 8.42419C7.29946 9.54941 6.66732 11.0755 6.66732 12.6668V27.3335C6.66732 30.6502 9.35065 33.3335 12.6673 33.3335H27.334C28.9253 33.3335 30.4514 32.7014 31.5766 31.5761C32.7018 30.4509 33.334 28.9248 33.334 27.3335V12.6668C33.334 9.35016 30.6507 6.66683 27.334 6.66683H12.6673ZM28.7507 9.16683C29.3032 9.16683 29.8331 9.38632 30.2238 9.77702C30.6145 10.1677 30.834 10.6976 30.834 11.2502C30.834 11.8027 30.6145 12.3326 30.2238 12.7233C29.8331 13.114 29.3032 13.3335 28.7507 13.3335C28.1981 13.3335 27.6682 13.114 27.2775 12.7233C26.8868 12.3326 26.6673 11.8027 26.6673 11.2502C26.6673 10.6976 26.8868 10.1677 27.2775 9.77702C27.6682 9.38632 28.1981 9.16683 28.7507 9.16683ZM20.0007 11.6668C22.2108 11.6668 24.3304 12.5448 25.8932 14.1076C27.456 15.6704 28.334 17.79 28.334 20.0002C28.334 22.2103 27.456 24.3299 25.8932 25.8927C24.3304 27.4555 22.2108 28.3335 20.0007 28.3335C17.7905 28.3335 15.6709 27.4555 14.1081 25.8927C12.5453 24.3299 11.6673 22.2103 11.6673 20.0002C11.6673 17.79 12.5453 15.6704 14.1081 14.1076C15.6709 12.5448 17.7905 11.6668 20.0007 11.6668ZM20.0007 15.0002C18.6746 15.0002 17.4028 15.5269 16.4651 16.4646C15.5274 17.4023 15.0007 18.6741 15.0007 20.0002C15.0007 21.3262 15.5274 22.598 16.4651 23.5357C17.4028 24.4734 18.6746 25.0002 20.0007 25.0002C21.3267 25.0002 22.5985 24.4734 23.5362 23.5357C24.4739 22.598 25.0007 21.3262 25.0007 20.0002C25.0007 18.6741 24.4739 17.4023 23.5362 16.4646C22.5985 15.5269 21.3267 15.0002 20.0007 15.0002Z" fill="#5B86A1"/>
</svg>
