<svg width="40" height="40" viewBox="0 0 40 40" fill="none" xmlns="http://www.w3.org/2000/svg">
<path d="M24.7441 33C24.4131 32.9956 24.0958 32.8694 23.8544 32.6462L11.3661 20.3413C11.1316 20.108 11 19.7929 11 19.4645C11 19.1362 11.1316 18.8211 11.3661 18.5878L23.8544 6.28282C24.097 6.0866 24.405 5.98633 24.7186 6.0015C25.0321 6.01667 25.3287 6.14621 25.5506 6.36491C25.7726 6.58361 25.9041 6.87584 25.9195 7.18476C25.9348 7.49368 25.8331 7.7972 25.6339 8.03628L14.0198 19.4645L25.6339 30.8928C25.8684 31.1261 26 31.4411 26 31.7695C26 32.0979 25.8684 32.4129 25.6339 32.6462C25.3925 32.8694 25.0751 32.9956 24.7441 33Z" fill="#A3A5A3"/>
</svg>
