<svg width="32" height="32" viewBox="0 0 32 32" fill="none" xmlns="http://www.w3.org/2000/svg">
<path d="M21.4146 1.60013H10.5838C9.68618 1.60013 8.82529 1.94493 8.19055 2.55869C7.55581 3.17245 7.19922 4.00488 7.19922 4.87286V27.1274C7.19922 27.9954 7.55581 28.8278 8.19055 29.4416C8.82529 30.0553 9.68618 30.4001 10.5838 30.4001H21.4146C22.3123 30.4001 23.1732 30.0553 23.8079 29.4416C24.4426 28.8278 24.7992 27.9954 24.7992 27.1274V4.87286C24.7992 4.00488 24.4426 3.17245 23.8079 2.55869C23.1732 1.94493 22.3123 1.60013 21.4146 1.60013ZM15.9992 29.091C14.8755 29.091 13.9684 28.2139 13.9684 27.1274C13.9684 26.0409 14.8755 25.1638 15.9992 25.1638C17.1229 25.1638 18.03 26.0409 18.03 27.1274C18.03 28.2139 17.1229 29.091 15.9992 29.091ZM22.0915 23.8547H9.90691V5.5274H22.0915V23.8547Z" fill="#F7FBFB"/>
</svg>
