<svg width="32" height="32" viewBox="0 0 32 32" fill="none" xmlns="http://www.w3.org/2000/svg">
<path d="M16.0004 2.39987C10.693 2.39987 6.40039 6.65667 6.40039 11.9199C6.40039 19.0599 16.0004 29.5999 16.0004 29.5999C16.0004 29.5999 25.6004 19.0599 25.6004 11.9199C25.6004 6.65667 21.3078 2.39987 16.0004 2.39987ZM16.0004 15.3199C15.0911 15.3199 14.219 14.9617 13.576 14.324C12.933 13.6864 12.5718 12.8216 12.5718 11.9199C12.5718 11.0181 12.933 10.1533 13.576 9.51571C14.219 8.87809 15.0911 8.51987 16.0004 8.51987C16.9097 8.51987 17.7818 8.87809 18.4248 9.51571C19.0677 10.1533 19.429 11.0181 19.429 11.9199C19.429 12.8216 19.0677 13.6864 18.4248 14.324C17.7818 14.9617 16.9097 15.3199 16.0004 15.3199Z" fill="#F7FBFB"/>
</svg>
