<svg width="40" height="40" viewBox="0 0 40 40" fill="none" xmlns="http://www.w3.org/2000/svg">
<path d="M15.2559 33C15.5869 32.9956 15.9042 32.8694 16.1456 32.6462L28.6339 20.3413C28.8684 20.108 29 19.7929 29 19.4645C29 19.1362 28.8684 18.8211 28.6339 18.5878L16.1456 6.28282C15.903 6.0866 15.595 5.98633 15.2814 6.0015C14.9679 6.01667 14.6713 6.14621 14.4494 6.36491C14.2274 6.58361 14.0959 6.87584 14.0805 7.18476C14.0652 7.49368 14.1669 7.7972 14.3661 8.03628L25.9802 19.4645L14.3661 30.8928C14.1316 31.1261 14 31.4411 14 31.7695C14 32.0979 14.1316 32.4129 14.3661 32.6462C14.6075 32.8694 14.9249 32.9956 15.2559 33Z" fill="#A3A5A3"/>
</svg>
