<svg width="40" height="40" viewBox="0 0 40 40" fill="none" xmlns="http://www.w3.org/2000/svg">
<path d="M19.9909 3.3335C16.6945 3.3335 13.4722 4.31098 10.7314 6.14234C7.99057 7.97369 5.85436 10.5767 4.5929 13.6221C3.33144 16.6675 3.00138 20.0187 3.64447 23.2517C4.28756 26.4847 5.8749 29.4544 8.20578 31.7853C10.5367 34.1162 13.5064 35.7035 16.7394 36.3466C19.9724 36.9897 23.3235 36.6596 26.3689 35.3982C29.4144 34.1367 32.0174 32.0005 33.8487 29.2597C35.6801 26.5188 36.6576 23.2965 36.6576 20.0002C36.6576 17.8115 36.2265 15.6442 35.3889 13.6221C34.5513 11.6 33.3236 9.76269 31.776 8.21505C30.2284 6.66741 28.391 5.43975 26.3689 4.60217C24.3469 3.76459 22.1796 3.3335 19.9909 3.3335ZM25.2909 28.5868C25.2287 28.7425 25.1339 28.8831 25.0129 28.9992C24.8918 29.1152 24.7474 29.204 24.5892 29.2595C24.431 29.3151 24.2627 29.3362 24.0957 29.3214C23.9287 29.3065 23.7668 29.2561 23.6209 29.1735L19.0959 25.6568L16.1926 28.3368C16.1252 28.3866 16.0464 28.4186 15.9634 28.43C15.8804 28.4413 15.7958 28.4317 15.7176 28.4018L16.2742 23.4202L16.2909 23.4352L16.3026 23.3368C16.3026 23.3368 24.4442 15.9235 24.7759 15.6085C25.1126 15.2935 25.0009 15.2252 25.0009 15.2252C25.0209 14.8418 24.3992 15.2252 24.3992 15.2252L13.6109 22.1652L9.11923 20.6352C9.11923 20.6352 8.42923 20.3885 8.36423 19.8435C8.29589 19.3035 9.14089 19.0102 9.14089 19.0102L27.0026 11.9135C27.0026 11.9135 28.4709 11.2602 28.4709 12.3435L25.2909 28.5868Z" fill="#5B86A1"/>
</svg>
