<svg xmlns="http://www.w3.org/2000/svg" width="40" height="40" viewBox="0 0 40 40" fill="none">
  <path d="M34.0196 8.85339L22.9804 2.69468C22.1773 2.24671 21.119 2 20 2C18.881 2 17.8227 2.24671 17.0196 2.69468L5.98036 8.85339C4.30904 9.78614 3 11.9771 3 13.8413V26.1606C3 28.0252 4.30904 30.2161 5.98036 31.1485L17.0196 37.3056C17.8227 37.7536 18.881 38 20 38C21.119 38 22.1773 37.7533 22.9804 37.3056L34.0196 31.1456C35.691 30.2132 37 28.0223 37 26.1578V13.8384C37 11.9787 35.691 9.78614 34.0196 8.85339ZM6.59697 30.1137C5.31641 29.3995 4.2342 27.5884 4.2342 26.159V20.8944C8.16464 20.5955 10.493 21.6015 13.4001 22.8661C16.0162 24.0046 19.1622 25.3706 24.303 26.1066C23.3426 26.2848 22.3724 26.4486 21.4061 26.6112C16.1563 27.4962 11.1914 28.3391 8.47692 31.1623L6.59697 30.1137ZM23.1791 19.3978C20.807 20.3091 17.7174 21.1257 13.1481 21.4511C11.1281 20.584 9.20512 19.8512 6.68572 19.6819L15.0798 11.5713L21.2832 17.5656L23.1791 19.3978ZM22.5926 17.1448L28.6282 11.3128L33.1649 15.6965C30.5535 15.9263 28.7255 16.8203 26.6992 17.8168C25.9929 18.1639 25.2421 18.5319 24.406 18.897L22.5926 17.1448ZM35.7651 26.159C35.7651 27.5884 34.6833 29.3995 33.402 30.1137L22.3624 36.2727C21.7551 36.6129 20.8941 36.8093 20 36.8093C19.1059 36.8093 18.2449 36.6145 17.6369 36.2743L9.57203 31.7735C12.0616 29.3973 16.7123 28.613 21.618 27.7855C27.1482 26.854 32.8414 25.8918 35.7658 22.4418L35.7651 26.159ZM35.7651 20.2131C34.4673 22.933 31.5155 24.3588 27.998 25.2964C21.9379 24.8714 18.3668 23.6574 15.4397 22.436C21.4249 21.7433 24.6288 20.1699 27.2579 18.8775C29.8468 17.6046 31.9211 16.5919 35.7651 16.8811V20.2131ZM35.7651 15.6847C35.4515 15.6623 35.1449 15.6463 34.8512 15.6396L29.0653 10.0482C29.008 9.99284 28.94 9.94892 28.8651 9.91895C28.7902 9.88898 28.71 9.87356 28.629 9.87356C28.548 9.87356 28.4677 9.88898 28.3929 9.91895C28.318 9.94892 28.25 9.99284 28.1927 10.0482L21.722 16.3016L15.5165 10.3068C15.4592 10.2514 15.3912 10.2075 15.3164 10.1775C15.2415 10.1475 15.1613 10.1321 15.0802 10.1321C14.9992 10.1321 14.919 10.1475 14.8441 10.1775C14.7693 10.2075 14.7012 10.2514 14.644 10.3068L4.96572 19.6599C4.72762 19.6679 4.48488 19.6797 4.23718 19.6976V13.8419C4.23718 12.4126 5.31938 10.6011 6.59995 9.88694L17.6399 3.72791C18.2492 3.38777 19.1105 3.1929 20.003 3.1929C20.8954 3.1929 21.7581 3.38777 22.3661 3.72791L33.4057 9.88694C34.6869 10.6018 35.7688 12.4126 35.7688 13.8419L35.7651 15.6847Z" fill="#000000"/>
</svg>