<svg xmlns="http://www.w3.org/2000/svg" aria-hidden="true" style="position:absolute;width:0;height:0;overflow:hidden">
  <defs>
    <symbol id="icon-round" viewBox="0 0 32 32">
      <path fill="#5b86a1" d="M15.999 9.333C8.639 9.333 2.666 12.32 2.666 16c0 2.987 3.92 5.507 9.333 6.36v2.693c0 .6.72.893 1.133.467l3.72-3.72a.66.66 0 0 0 0-.947l-3.72-3.72a.671.671 0 0 0-.726-.138.663.663 0 0 0-.407.617v2.027c-4.2-.747-6.667-2.533-6.667-3.64 0-1.413 4.053-4 10.667-4s10.667 2.587 10.667 4c0 .88-1.6 2.24-4.427 3.12-.547.173-.907.68-.907 1.253 0 .893.867 1.547 1.707 1.28 3.773-1.173 6.293-3.267 6.293-5.653 0-3.68-5.973-6.667-13.333-6.667z" style="fill:var(--color1, #5b86a1)"/>
    </symbol>
    <symbol id="icon-dot" viewBox="0 0 32 32">
      <path d="M32 16c0 8.837-7.163 16-16 16S0 24.837 0 16 7.163 0 16 0s16 7.163 16 16z"/>
    </symbol>
    <symbol id="icon-star" viewBox="0 0 32 32">
      <path fill="#f7fbfb" d="M15.247 6.173a.78.78 0 0 1 1.505 0l1.913 6.165c.106.342.41.573.753.573h6.189c.767 0 1.085 1.028.465 1.499l-5.007 3.81a.854.854 0 0 0-.288.927l1.913 6.165c.237.764-.598 1.399-1.218.927l-5.007-3.81a.762.762 0 0 0-.93 0l-5.007 3.81c-.62.472-1.455-.163-1.218-.927l1.913-6.165a.85.85 0 0 0-.288-.927l-5.007-3.81c-.62-.472-.301-1.499.465-1.499h6.189a.796.796 0 0 0 .753-.573l1.913-6.165z" style="fill:var(--color2, #f7fbfb)"/>
    </symbol>
    <symbol id="icon-close" viewBox="0 0 32 32">
      <path fill="none" stroke-linecap="round" stroke-linejoin="round" stroke-width="1.6" d="M24 24 8 8m16 0L8 24"/>
    </symbol>
    <symbol id="icon-facebook" viewBox="0 0 32 32">
      <path d="M16.001 2.72c-7.333 0-13.333 5.987-13.333 13.36 0 6.667 4.88 12.2 11.253 13.2v-9.333h-3.387V16.08h3.387v-2.947c0-3.347 1.987-5.187 5.04-5.187 1.453 0 2.973.253 2.973.253v3.293h-1.68c-1.653 0-2.173 1.027-2.173 2.08v2.507h3.707l-.6 3.867h-3.107v9.333a13.332 13.332 0 0 0 11.254-13.2c0-7.373-6-13.36-13.333-13.36z"/>
    </symbol>
    <symbol id="icon-instagram" viewBox="0 0 32 32">
      <path d="M10.401 2.667h11.2a7.739 7.739 0 0 1 7.733 7.733v11.2a7.733 7.733 0 0 1-7.733 7.733h-11.2A7.739 7.739 0 0 1 2.668 21.6V10.4a7.733 7.733 0 0 1 7.733-7.733zm-.267 2.666a4.8 4.8 0 0 0-4.8 4.8v11.733c0 2.653 2.147 4.8 4.8 4.8h11.733a4.8 4.8 0 0 0 4.8-4.8V10.133c0-2.653-2.147-4.8-4.8-4.8H10.134zm12.867 2a1.667 1.667 0 1 1 0 3.334 1.667 1.667 0 0 1 0-3.334zm-7 2a6.67 6.67 0 0 1 4.714 11.381 6.67 6.67 0 0 1-9.428 0 6.67 6.67 0 0 1 0-9.428 6.67 6.67 0 0 1 4.714-1.953zm0 2.667a4.003 4.003 0 0 0-4 4 4.003 4.003 0 0 0 4 4 4.003 4.003 0 0 0 4-4 4.003 4.003 0 0 0-4-4z"/>
    </symbol>
    <symbol id="icon-arrow-left" viewBox="0 0 32 32">
      <path d="M19.795 26.4a1.07 1.07 0 0 1-.712-.283l-9.991-9.844a.989.989 0 0 1 0-1.402l9.991-9.844a1.02 1.02 0 0 1 1.357.066.987.987 0 0 1 .067 1.337l-9.291 9.143 9.291 9.143a.989.989 0 0 1 0 1.402c-.193.179-.447.28-.712.283z"/>
    </symbol>
    <symbol id="icon-logo" viewBox="0 0 32 32">
      <path fill="#f7fbfb" d="m27.216 7.083-8.831-4.927c-.642-.358-1.489-.556-2.384-.556s-1.742.197-2.384.556L4.786 7.083c-1.337.746-2.384 2.499-2.384 3.99v9.855c0 1.492 1.047 3.244 2.384 3.99l8.831 4.926c.642.358 1.489.556 2.384.556s1.742-.197 2.384-.556l8.831-4.928c1.337-.746 2.384-2.499 2.384-3.99V11.07c0-1.488-1.047-3.242-2.384-3.988zM5.278 24.091c-1.024-.571-1.89-2.02-1.89-3.164v-4.212c3.144-.239 5.007.566 7.333 1.577 2.093.911 4.61 2.004 8.722 2.592-.768.143-1.544.274-2.318.404-4.2.708-8.172 1.382-10.343 3.641l-1.504-.839zm13.265-8.573c-1.898.729-4.369 1.382-8.025 1.643-1.616-.694-3.154-1.28-5.17-1.415l6.715-6.488 6.479 6.261zm-.469-1.802 4.828-4.666 3.629 3.507c-2.089.184-3.552.899-5.173 1.696a43.29 43.29 0 0 1-1.835.864l-1.451-1.402zm10.538 7.211c0 1.144-.865 2.592-1.89 3.164l-8.832 4.927c-.486.272-1.175.429-1.89.429s-1.404-.156-1.89-.428l-6.452-3.601c1.992-1.901 5.712-2.528 9.637-3.19 4.424-.745 8.979-1.515 11.318-4.275l-.001 2.974zm0-4.757c-1.038 2.176-3.4 3.317-6.214 4.067-4.848-.34-7.705-1.311-10.047-2.288 4.788-.554 7.351-1.813 9.455-2.847 2.071-1.018 3.731-1.828 6.806-1.597v2.666zm0-3.622a14.637 14.637 0 0 0-.731-.036l-4.629-4.473a.5.5 0 0 0-.349-.139.508.508 0 0 0-.349.139l-5.177 5.003-4.964-4.796a.5.5 0 0 0-.349-.139.508.508 0 0 0-.349.139l-7.743 7.482c-.19.006-.385.016-.583.03v-4.685c0-1.143.866-2.593 1.89-3.164l8.832-4.927c.487-.272 1.176-.428 1.89-.428s1.404.156 1.89.428l8.832 4.927c1.025.572 1.89 2.021 1.89 3.164l-.003 1.474z" style="fill:var(--color2, #f7fbfb)"/>
    </symbol>
    <symbol id="icon-menu" viewBox="0 0 32 32">
      <path fill="none" stroke="#f7fbfb" stroke-linecap="round" stroke-miterlimit="10" stroke-width="2.4" d="M4.8 9.6h22.4M4.8 16h22.4M4.8 21.6h22.4" style="stroke:var(--color2, #f7fbfb)"/>
    </symbol>
    <symbol id="icon-arrow-right" viewBox="0 0 32 32">
      <path d="M12.205 26.4a1.07 1.07 0 0 0 .712-.283l9.991-9.844a.989.989 0 0 0 0-1.402l-9.991-9.844a1.02 1.02 0 0 0-1.357.066.987.987 0 0 0-.067 1.337l9.291 9.143-9.291 9.143a.989.989 0 0 0 0 1.402c.193.179.447.28.712.283z"/>
    </symbol>
    <symbol id="icon-telegram" viewBox="0 0 32 32">
      <path d="M15.993 2.667A13.336 13.336 0 0 0 2.915 18.602a13.327 13.327 0 0 0 10.476 10.476 13.34 13.34 0 0 0 13.688-5.67 13.336 13.336 0 0 0-1.658-16.836 13.33 13.33 0 0 0-9.428-3.905zm4.24 20.202c-.05.125-.126.237-.222.33s-.212.164-.339.208a.928.928 0 0 1-.775-.068l-3.62-2.813-2.323 2.144a.39.39 0 0 1-.38.052l.445-3.985.013.012.009-.079s6.513-5.931 6.779-6.183c.269-.252.18-.307.18-.307.016-.307-.481 0-.481 0l-8.631 5.552-3.593-1.224s-.552-.197-.604-.633c-.055-.432.621-.667.621-.667l14.289-5.677s1.175-.523 1.175.344L20.232 22.87z"/>
    </symbol>
    <symbol id="icon-place" viewBox="0 0 32 32">
      <path fill="#f7fbfb" d="M16 2.4c-5.307 0-9.6 4.257-9.6 9.52C6.4 19.06 16 29.6 16 29.6s9.6-10.54 9.6-17.68c0-5.263-4.293-9.52-9.6-9.52zm0 12.92c-.909 0-1.781-.358-2.424-.996s-1.004-1.502-1.004-2.404c0-.902.361-1.767 1.004-2.404a3.446 3.446 0 0 1 4.848 0 3.384 3.384 0 0 1 0 4.808A3.446 3.446 0 0 1 16 15.32z" style="fill:var(--color1, #f7fbfb)"/>
    </symbol>
    <symbol id="icon-phone" viewBox="0 0 32 32">
      <path fill="#f7fbfb" d="M21.415 1.6H10.584c-.898 0-1.758.345-2.393.959S7.2 4.005 7.2 4.873v22.255c0 .868.357 1.7.991 2.314s1.496.959 2.393.959h10.831c.898 0 1.759-.345 2.393-.959s.991-1.446.991-2.314V4.873c0-.868-.357-1.7-.991-2.314S22.312 1.6 21.415 1.6zm-5.416 27.491c-1.124 0-2.031-.877-2.031-1.964s.907-1.964 2.031-1.964 2.031.877 2.031 1.964-.907 1.964-2.031 1.964zm6.092-5.236H9.906V5.528h12.185v18.327z" style="fill:var(--color1, #f7fbfb)"/>
    </symbol>
    <symbol id="icon-email" viewBox="0 0 32 32">
      <path fill="#f7fbfb" d="M26.88 5.6H5.12c-1.496 0-2.706 1.17-2.706 2.6L2.4 23.8c0 1.43 1.224 2.6 2.72 2.6h21.76c1.496 0 2.72-1.17 2.72-2.6V8.2c0-1.43-1.224-2.6-2.72-2.6zm-.544 5.525-9.615 5.746a1.43 1.43 0 0 1-1.442 0l-9.615-5.746c-.136-.073-.256-.172-.351-.291s-.164-.254-.203-.399a1.052 1.052 0 0 1 .14-.859 1.14 1.14 0 0 1 .747-.497 1.207 1.207 0 0 1 .891.174L16 14.7l9.112-5.447a1.193 1.193 0 0 1 .891-.174c.153.03.298.09.427.175a1.115 1.115 0 0 1 .482.738 1.067 1.067 0 0 1-.225.842 1.165 1.165 0 0 1-.351.291z" style="fill:var(--color1, #f7fbfb)"/>
    </symbol>
    <symbol id="icon-tick" viewBox="0 0 32 32">
    
      <path stroke-linejoin="round" stroke-linecap="round" stroke-miterlimit="4" stroke-width="1.6" d="M26 8l-14 16-6-6"></path>
</symbol>
    </symbol>
  </defs>
</svg>